<svg viewBox="0 0 500 500" xmlns="http://www.w3.org/2000/svg" xmlns:xlink="http://www.w3.org/1999/xlink" width="100%" id="blobSvg">
  <defs>
    <pattern id="pattern" x="0" y="0" width="100" height="20" patternUnits="userSpaceOnUse" fill="#6c7c93">
      <path d="M21.184 20c.357-.13.72-.264 1.088-.402l1.768-.661C33.64 15.347 39.647 14 50 14c10.271 0 15.362 1.222 24.629 4.928.955.383 1.869.74 2.75 1.072h6.225c-2.51-.73-5.139-1.691-8.233-2.928C65.888 13.278 60.562 12 50 12c-10.626 0-16.855 1.397-26.66 5.063l-1.767.662c-2.475.923-4.66 1.674-6.724 2.275h6.335zm0-20C13.258 2.892 8.077 4 0 4V2c5.744 0 9.951-.574 14.85-2h6.334zM77.38 0C85.239 2.966 90.502 4 100 4V2c-6.842 0-11.386-.542-16.396-2h-6.225zM0 14c8.44 0 13.718-1.21 22.272-4.402l1.768-.661C33.64 5.347 39.647 4 50 4c10.271 0 15.362 1.222 24.629 4.928C84.112 12.722 89.438 14 100 14v-2c-10.271 0-15.362-1.222-24.629-4.928C65.888 3.278 60.562 2 50 2 39.374 2 33.145 3.397 23.34 7.063l-1.767.662C13.223 10.84 8.163 12 0 12v2z"></path>
    </pattern>
  </defs>
  <path id="blob" d="M482.5,288.5Q488,327,463,357Q438,387,414,414.5Q390,442,358,463.5Q326,485,288,490.5Q250,496,215,480.5Q180,465,147.5,450.5Q115,436,86.5,412.5Q58,389,43,355.5Q28,322,18.5,286Q9,250,15,213Q21,176,37,141.5Q53,107,81,82Q109,57,143,41Q177,25,213.5,16.5Q250,8,288.5,10.5Q327,13,357.5,36.5Q388,60,411.5,87.5Q435,115,456.5,145.5Q478,176,477.5,213Q477,250,482.5,288.5Z" fill="url(#pattern)"></path>
</svg>