<svg viewBox="0 0 500 500" xmlns="http://www.w3.org/2000/svg" xmlns:xlink="http://www.w3.org/1999/xlink" width="100%" id="blobSvg">
  <path id="blob" d="M442,281Q442,312,425,338.5Q408,365,381.5,379.5Q355,394,331.5,410.5Q308,427,279,454.5Q250,482,220,458Q190,434,157,429Q124,424,93.5,405Q63,386,50.5,352.5Q38,319,19.5,284.5Q1,250,37.5,221.5Q74,193,73.5,157.5Q73,122,110,115Q147,108,160.5,62Q174,16,212,41.5Q250,67,280,65.5Q310,64,344.5,68Q379,72,414.5,88.5Q450,105,460,142Q470,179,456,214.5Q442,250,442,281Z" fill="#a29bfe"></path>
</svg>