<svg width="495" height="504" viewBox="0 0 495 504" fill="none" xmlns="http://www.w3.org/2000/svg">
<path d="M137.65 61.9524C110.891 84.2135 102.855 66.9485 38.9073 111.914C-35.053 139.991 19.1588 301.768 19.1588 301.768C8.81434 364.72 79.0313 405.648 110.378 417.638C147.054 421.302 162.571 433.667 187.961 467.641C230.857 525.036 301.881 508.708 347.961 458.746C398.743 382.804 440.114 439.84 455.507 380.707C467.732 333.743 507.241 312.951 491.242 295.773C413.998 212.836 468.174 215.794 481.34 161.835C491.872 118.668 438.708 96.5519 404.226 86.8927C389.18 86.8927 347.05 58.4131 325.232 20.0426C303.415 -18.3279 221.919 8.05186 206.872 20.0426C181.795 21.0419 185.646 22.0236 137.65 61.9524Z" fill="url(#paint0_linear)"/>
<defs>
<linearGradient id="paint0_linear" x1="275.377" y1="25.1281" x2="284.034" y2="404.724" gradientUnits="userSpaceOnUse">
<stop stop-color="#7353FF" stop-opacity="0.24"/>
<stop offset="0.21855" stop-color="#8176E7" stop-opacity="0.434028"/>
<stop offset="1" stop-color="#D5ABAB" stop-opacity="0.38"/>
</linearGradient>
</defs>
</svg>
