<svg width="2470" height="1475" viewBox="0 0 2470 1475" fill="none" xmlns="http://www.w3.org/2000/svg">
<path d="M1390.31 408.993C1088.87 367.292 995.566 268.653 943.117 224.545L856.162 485.179L2504.17 1018.47V637.549C2450.34 670.963 2320.32 722.555 2230.88 661.607C2119.08 585.422 2032.12 408.993 1390.31 408.993Z" fill="#413585"/>
<path d="M1017.55 277.492C701.652 -11.2089 198.259 -19.2284 -13.9512 12.8495V317.59L2464.07 1190.89V923.061C2400.94 929.744 2236.01 912.635 2081.28 790.739C1887.88 638.369 1936.23 674.457 1642.09 618.32C1347.95 562.184 1412.42 638.369 1017.55 277.492Z" fill="url(#paint0_linear)"/>
<path d="M684.956 395.817C347.819 174.975 132.538 259.297 -34 291.419V673.636L2464.07 1222.97V1090.47C2343.57 1054.33 2152.11 1070.39 2009.14 957.961C1866.16 845.532 1623.26 986.067 1245.5 640.751C989.599 524.307 1123.62 683.163 684.956 395.817Z" fill="url(#paint1_linear)"/>
<path d="M458.09 519.18C269.693 339.502 60.1828 492.442 -21.0227 591.372C-27.7898 717.04 -37.2638 1002.07 -21.0227 1136.82C-4.78158 1271.58 375.531 1265.17 563.657 1245.11C758.55 1223.72 1196.25 1213.83 1387.89 1345.38C1579.54 1476.93 2195.89 1483.08 2480.11 1469.71V1180.94C2400.26 1168.91 2189.39 1137.63 1984.75 1108.75C1780.12 1079.87 1566.55 987.092 1485.34 944.312C1435.26 901.531 1271.77 811.157 1018.41 791.906C701.706 767.842 693.586 743.778 458.09 519.18Z" fill="url(#paint2_linear)"/>
<defs>
<linearGradient id="paint0_linear" x1="498.049" y1="94.1657" x2="230.049" y2="958.166" gradientUnits="userSpaceOnUse">
<stop stop-color="#E62E2E"/>
<stop offset="0.628472" stop-color="#F7AEAE"/>
<stop offset="1" stop-color="#FBEBEB"/>
</linearGradient>
<linearGradient id="paint1_linear" x1="-165.951" y1="414.166" x2="1530.05" y2="1170.17" gradientUnits="userSpaceOnUse">
<stop stop-color="#F8F8F8"/>
<stop offset="1" stop-color="#C4C4C4"/>
</linearGradient>
<linearGradient id="paint2_linear" x1="1225.06" y1="436.052" x2="1225.06" y2="1474.57" gradientUnits="userSpaceOnUse">
<stop stop-color="#9B2441"/>
<stop offset="0.590371" stop-color="#4F299B"/>
<stop offset="1" stop-color="#24309B" stop-opacity="0.62"/>
</linearGradient>
</defs>
</svg>
