<svg xmlns="http://www.w3.org/2000/svg" width="687" height="460.523" viewBox="0 0 687 460.523">
  <g id="Component_1_1" data-name="Component 1 – 1" transform="translate(0 0.023)">
    <g id="Group_1" data-name="Group 1">
      <g id="Ellipse_1" data-name="Ellipse 1" transform="translate(277 24.5)" fill="none" stroke="#000" stroke-width="8">
        <circle cx="150" cy="150" r="150" stroke="none"/>
        <circle cx="150" cy="150" r="146" fill="none"/>
      </g>
      <g id="Ellipse_2" data-name="Ellipse 2" transform="translate(101 24.5)" fill="none" stroke="#000" stroke-width="8">
        <circle cx="150" cy="150" r="150" stroke="none"/>
        <circle cx="150" cy="150" r="146" fill="none"/>
      </g>
      <line id="Line_1" data-name="Line 1" x2="90" y2="70" transform="translate(47.5 6)" fill="none" stroke="#000" stroke-width="8"/>
      <path id="Path_4" data-name="Path 4" d="M0,0,31.45,11.156,39.467,14" transform="translate(325.2 70)" fill="none" stroke="#000" stroke-width="8"/>
      <line id="Line_3" data-name="Line 3" x2="80" y2="23" transform="translate(305.5 89)" fill="none" stroke="#000" stroke-width="8"/>
      <line id="Line_4" data-name="Line 4" x2="104" y2="30" transform="translate(291.5 112)" fill="none" stroke="#000" stroke-width="8"/>
      <line id="Line_5" data-name="Line 5" x2="116" y2="35" transform="translate(283.5 140)" fill="none" stroke="#000" stroke-width="8"/>
      <path id="Path_5" data-name="Path 5" d="M.5,0,118,35" transform="translate(277.5 170)" fill="none" stroke="#000" stroke-width="8"/>
      <path id="Path_1" data-name="Path 1" d="M4.1-.733,32.106,7.351,109.533,29.7" transform="translate(277.5 203)" fill="none" stroke="#000" stroke-width="8"/>
      <path id="Path_2" data-name="Path 2" d="M4.1-.733,16.636,3.756l8.112,2.9L51.3,16.167" transform="matrix(0.998, -0.07, 0.07, 0.998, 305.432, 262.544)" fill="none" stroke="#000" stroke-width="8"/>
      <path id="Path_3" data-name="Path 3" d="M4.1-.733,26.505,5.755,88.45,23.692" transform="translate(287.4 231.233)" fill="none" stroke="#000" stroke-width="8"/>
      <line id="Line_7" data-name="Line 7" x2="2" y2="350" transform="translate(338.5)" fill="none" stroke="#000" stroke-width="8"/>
      <line id="Line_8" data-name="Line 8" y1="70" x2="90" transform="translate(536.5 6)" fill="none" stroke="#000" stroke-width="8"/>
      <line id="Line_9" data-name="Line 9" x2="90" y2="70" transform="translate(536.5 274)" fill="none" stroke="#000" stroke-width="8"/>
      <line id="Line_10" data-name="Line 10" y1="70" x2="90" transform="translate(47.5 272)" fill="none" stroke="#000" stroke-width="8"/>
    </g>
    <text id="codegenera" transform="translate(0 429.5)" font-size="125" font-family="SegoeUI-Bold, Segoe UI" font-weight="700"><tspan x="0" y="0">codegenera</tspan></text>
  </g>
</svg>
